<svg width="17" height="15" viewBox="0 0 17 15" fill="none" xmlns="http://www.w3.org/2000/svg">
<path id="Vector" d="M1.275 0.874023C0.571094 0.874023 0 1.46225 0 2.18727V10.9422C0 11.6673 0.571094 12.2555 1.275 12.2555H1.7C1.7 13.7055 2.84219 14.882 4.25 14.882C5.65781 14.882 6.8 13.7055 6.8 12.2555H10.2C10.2 13.7055 11.3422 14.882 12.75 14.882C14.1578 14.882 15.3 13.7055 15.3 12.2555H16.15C16.6202 12.2555 17 11.8642 17 11.38C17 10.8957 16.6202 10.5045 16.15 10.5045V8.75349V7.878V7.36638C16.15 6.90127 15.972 6.45531 15.6533 6.127L13.6 4.01213C13.2812 3.68382 12.8483 3.50051 12.3967 3.50051H11.05V2.18727C11.05 1.46225 10.4789 0.874023 9.775 0.874023H1.275ZM11.05 5.25151H12.3967L14.45 7.36638V7.878H11.05V5.25151ZM2.975 12.2555C2.975 11.9072 3.10933 11.5732 3.34844 11.3269C3.58755 11.0806 3.91185 10.9422 4.25 10.9422C4.58815 10.9422 4.91245 11.0806 5.15156 11.3269C5.39067 11.5732 5.525 11.9072 5.525 12.2555C5.525 12.6038 5.39067 12.9378 5.15156 13.1841C4.91245 13.4304 4.58815 13.5687 4.25 13.5687C3.91185 13.5687 3.58755 13.4304 3.34844 13.1841C3.10933 12.9378 2.975 12.6038 2.975 12.2555ZM12.75 10.9422C13.0882 10.9422 13.4125 11.0806 13.6516 11.3269C13.8907 11.5732 14.025 11.9072 14.025 12.2555C14.025 12.6038 13.8907 12.9378 13.6516 13.1841C13.4125 13.4304 13.0882 13.5687 12.75 13.5687C12.4118 13.5687 12.0875 13.4304 11.8484 13.1841C11.6093 12.9378 11.475 12.6038 11.475 12.2555C11.475 11.9072 11.6093 11.5732 11.8484 11.3269C12.0875 11.0806 12.4118 10.9422 12.75 10.9422Z" fill="black"/>
</svg>
