<svg width="53" height="44" viewBox="0 0 53 44" fill="none" xmlns="http://www.w3.org/2000/svg">
<path id="Vector" d="M3.975 0C1.78047 0 0 1.84766 0 4.125V31.625C0 33.9023 1.78047 35.75 3.975 35.75H5.3C5.3 40.3047 8.86094 44 13.25 44C17.6391 44 21.2 40.3047 21.2 35.75H31.8C31.8 40.3047 35.3609 44 39.75 44C44.1391 44 47.7 40.3047 47.7 35.75H50.35C51.8158 35.75 53 34.5211 53 33C53 31.4789 51.8158 30.25 50.35 30.25V24.75V22V20.393C50.35 18.932 49.7952 17.5312 48.8014 16.5L42.4 9.85703C41.4062 8.82578 40.0564 8.25 38.6486 8.25H34.45V4.125C34.45 1.84766 32.6695 0 30.475 0H3.975ZM34.45 13.75H38.6486L45.05 20.393V22H34.45V13.75ZM9.275 35.75C9.275 34.656 9.69379 33.6068 10.4393 32.8332C11.1847 32.0596 12.1958 31.625 13.25 31.625C14.3042 31.625 15.3153 32.0596 16.0608 32.8332C16.8062 33.6068 17.225 34.656 17.225 35.75C17.225 36.844 16.8062 37.8932 16.0608 38.6668C15.3153 39.4404 14.3042 39.875 13.25 39.875C12.1958 39.875 11.1847 39.4404 10.4393 38.6668C9.69379 37.8932 9.275 36.844 9.275 35.75ZM39.75 31.625C40.8042 31.625 41.8153 32.0596 42.5607 32.8332C43.3062 33.6068 43.725 34.656 43.725 35.75C43.725 36.844 43.3062 37.8932 42.5607 38.6668C41.8153 39.4404 40.8042 39.875 39.75 39.875C38.6958 39.875 37.6847 39.4404 36.9393 38.6668C36.1938 37.8932 35.775 36.844 35.775 35.75C35.775 34.656 36.1938 33.6068 36.9393 32.8332C37.6847 32.0596 38.6958 31.625 39.75 31.625Z" fill="black"/>
</svg>
